<mxfile host="app.diagrams.net" modified="2023-01-23T12:24:13.342Z" agent="5.0 (X11; Linux x86_64) AppleWebKit/537.36 (KHTML, like Gecko) Chrome/107.0.0.0 Safari/537.36 Edg/107.0.1418.42" etag="t6hOulwLhKGjAvfg44Sj" version="20.8.10" type="github">
  <diagram id="R2lEEEUBdFMjLlhIrx00" name="Page-1">
    <mxGraphModel dx="1854" dy="1015" grid="1" gridSize="10" guides="1" tooltips="1" connect="1" arrows="1" fold="1" page="1" pageScale="1" pageWidth="1654" pageHeight="1169" math="0" shadow="0" extFonts="Permanent Marker^https://fonts.googleapis.com/css?family=Permanent+Marker">
      <root>
        <mxCell id="0" />
        <mxCell id="1" parent="0" />
        <mxCell id="7EVLLb8pi6bqAcfZyfd--1" value="Citizen" style="rounded=1;arcSize=10;whiteSpace=wrap;html=1;align=center;" vertex="1" parent="1">
          <mxGeometry x="200" y="130" width="100" height="40" as="geometry" />
        </mxCell>
        <mxCell id="7EVLLb8pi6bqAcfZyfd--2" value="patient" style="rounded=1;arcSize=10;whiteSpace=wrap;html=1;align=center;" vertex="1" parent="1">
          <mxGeometry x="740" y="130" width="100" height="40" as="geometry" />
        </mxCell>
        <mxCell id="7EVLLb8pi6bqAcfZyfd--3" value="Doctor" style="rounded=1;arcSize=10;whiteSpace=wrap;html=1;align=center;" vertex="1" parent="1">
          <mxGeometry x="460" y="440" width="100" height="40" as="geometry" />
        </mxCell>
        <mxCell id="7EVLLb8pi6bqAcfZyfd--4" value="Hospitals" style="rounded=1;arcSize=10;whiteSpace=wrap;html=1;align=center;" vertex="1" parent="1">
          <mxGeometry x="1470" y="220" width="100" height="40" as="geometry" />
        </mxCell>
        <mxCell id="7EVLLb8pi6bqAcfZyfd--5" value="Contact" style="rounded=1;arcSize=10;whiteSpace=wrap;html=1;align=center;" vertex="1" parent="1">
          <mxGeometry x="170" y="545" width="100" height="40" as="geometry" />
        </mxCell>
        <mxCell id="7EVLLb8pi6bqAcfZyfd--6" value="vaccination" style="rounded=1;arcSize=10;whiteSpace=wrap;html=1;align=center;" vertex="1" parent="1">
          <mxGeometry x="1410" y="680" width="100" height="40" as="geometry" />
        </mxCell>
        <mxCell id="7EVLLb8pi6bqAcfZyfd--7" value="Vaccination Centres" style="rounded=1;arcSize=10;whiteSpace=wrap;html=1;align=center;" vertex="1" parent="1">
          <mxGeometry x="1170" y="280" width="100" height="50" as="geometry" />
        </mxCell>
        <mxCell id="7EVLLb8pi6bqAcfZyfd--8" value="Symptoms" style="rounded=1;arcSize=10;whiteSpace=wrap;html=1;align=center;" vertex="1" parent="1">
          <mxGeometry x="200" y="640" width="100" height="40" as="geometry" />
        </mxCell>
        <mxCell id="7EVLLb8pi6bqAcfZyfd--9" value="Testings" style="rounded=1;arcSize=10;whiteSpace=wrap;html=1;align=center;" vertex="1" parent="1">
          <mxGeometry x="710" y="670" width="100" height="40" as="geometry" />
        </mxCell>
        <mxCell id="7EVLLb8pi6bqAcfZyfd--10" value="Testing Labs" style="rounded=1;arcSize=10;whiteSpace=wrap;html=1;align=center;" vertex="1" parent="1">
          <mxGeometry x="360" y="800" width="100" height="40" as="geometry" />
        </mxCell>
        <mxCell id="7EVLLb8pi6bqAcfZyfd--11" value="Social Media Reports" style="rounded=1;arcSize=10;whiteSpace=wrap;html=1;align=center;" vertex="1" parent="1">
          <mxGeometry x="930" y="500" width="100" height="50" as="geometry" />
        </mxCell>
        <mxCell id="7EVLLb8pi6bqAcfZyfd--12" value="ID" style="ellipse;whiteSpace=wrap;html=1;align=center;fontStyle=4;" vertex="1" parent="1">
          <mxGeometry x="60" y="70" width="100" height="40" as="geometry" />
        </mxCell>
        <mxCell id="7EVLLb8pi6bqAcfZyfd--13" value="ID" style="ellipse;whiteSpace=wrap;html=1;align=center;fontStyle=4;" vertex="1" parent="1">
          <mxGeometry x="600" y="440" width="100" height="40" as="geometry" />
        </mxCell>
        <mxCell id="7EVLLb8pi6bqAcfZyfd--14" value="ID" style="ellipse;whiteSpace=wrap;html=1;align=center;fontStyle=4;" vertex="1" parent="1">
          <mxGeometry x="130" y="680" width="100" height="40" as="geometry" />
        </mxCell>
        <mxCell id="7EVLLb8pi6bqAcfZyfd--15" value="ID" style="ellipse;whiteSpace=wrap;html=1;align=center;fontStyle=4;" vertex="1" parent="1">
          <mxGeometry x="1380" y="610" width="100" height="40" as="geometry" />
        </mxCell>
        <mxCell id="7EVLLb8pi6bqAcfZyfd--16" value="ID" style="ellipse;whiteSpace=wrap;html=1;align=center;fontStyle=4;" vertex="1" parent="1">
          <mxGeometry x="50" y="565" width="100" height="40" as="geometry" />
        </mxCell>
        <mxCell id="7EVLLb8pi6bqAcfZyfd--17" value="ID" style="ellipse;whiteSpace=wrap;html=1;align=center;fontStyle=4;" vertex="1" parent="1">
          <mxGeometry x="1500" y="280" width="100" height="40" as="geometry" />
        </mxCell>
        <mxCell id="7EVLLb8pi6bqAcfZyfd--18" value="ID" style="ellipse;whiteSpace=wrap;html=1;align=center;fontStyle=4;" vertex="1" parent="1">
          <mxGeometry x="1270" y="330" width="100" height="40" as="geometry" />
        </mxCell>
        <mxCell id="7EVLLb8pi6bqAcfZyfd--19" value="ID" style="ellipse;whiteSpace=wrap;html=1;align=center;fontStyle=4;" vertex="1" parent="1">
          <mxGeometry x="240" y="810" width="100" height="40" as="geometry" />
        </mxCell>
        <mxCell id="7EVLLb8pi6bqAcfZyfd--20" value="ID" style="ellipse;whiteSpace=wrap;html=1;align=center;fontStyle=4;" vertex="1" parent="1">
          <mxGeometry x="1000" y="565" width="100" height="40" as="geometry" />
        </mxCell>
        <mxCell id="7EVLLb8pi6bqAcfZyfd--21" value="ID" style="ellipse;whiteSpace=wrap;html=1;align=center;fontStyle=4;" vertex="1" parent="1">
          <mxGeometry x="650" y="30" width="100" height="40" as="geometry" />
        </mxCell>
        <mxCell id="7EVLLb8pi6bqAcfZyfd--22" value="ID" style="ellipse;whiteSpace=wrap;html=1;align=center;fontStyle=4;" vertex="1" parent="1">
          <mxGeometry x="720" y="730" width="100" height="40" as="geometry" />
        </mxCell>
        <mxCell id="7EVLLb8pi6bqAcfZyfd--23" value="Name" style="ellipse;whiteSpace=wrap;html=1;align=center;" vertex="1" parent="1">
          <mxGeometry x="200" y="30" width="100" height="40" as="geometry" />
        </mxCell>
        <mxCell id="7EVLLb8pi6bqAcfZyfd--24" value="Age" style="ellipse;whiteSpace=wrap;html=1;align=center;" vertex="1" parent="1">
          <mxGeometry x="340" y="70" width="100" height="40" as="geometry" />
        </mxCell>
        <mxCell id="7EVLLb8pi6bqAcfZyfd--25" value="Address" style="ellipse;whiteSpace=wrap;html=1;align=center;" vertex="1" parent="1">
          <mxGeometry x="160" y="270" width="100" height="40" as="geometry" />
        </mxCell>
        <mxCell id="7EVLLb8pi6bqAcfZyfd--26" value="sex" style="ellipse;whiteSpace=wrap;html=1;align=center;" vertex="1" parent="1">
          <mxGeometry x="40" y="260" width="100" height="40" as="geometry" />
        </mxCell>
        <mxCell id="7EVLLb8pi6bqAcfZyfd--27" value="Phone Number" style="ellipse;whiteSpace=wrap;html=1;align=center;" vertex="1" parent="1">
          <mxGeometry x="10" y="150" width="120" height="50" as="geometry" />
        </mxCell>
        <mxCell id="7EVLLb8pi6bqAcfZyfd--28" value="Vaccination Status" style="ellipse;whiteSpace=wrap;html=1;align=center;" vertex="1" parent="1">
          <mxGeometry x="350" y="160" width="100" height="60" as="geometry" />
        </mxCell>
        <mxCell id="7EVLLb8pi6bqAcfZyfd--32" value="" style="endArrow=none;html=1;rounded=0;" edge="1" parent="1">
          <mxGeometry width="50" height="50" relative="1" as="geometry">
            <mxPoint x="300" y="130" as="sourcePoint" />
            <mxPoint x="350" y="100" as="targetPoint" />
          </mxGeometry>
        </mxCell>
        <mxCell id="7EVLLb8pi6bqAcfZyfd--33" value="" style="endArrow=none;html=1;rounded=0;exitX=1;exitY=1;exitDx=0;exitDy=0;" edge="1" parent="1" source="7EVLLb8pi6bqAcfZyfd--1" target="7EVLLb8pi6bqAcfZyfd--28">
          <mxGeometry width="50" height="50" relative="1" as="geometry">
            <mxPoint x="310" y="160" as="sourcePoint" />
            <mxPoint x="360" y="110" as="targetPoint" />
          </mxGeometry>
        </mxCell>
        <mxCell id="7EVLLb8pi6bqAcfZyfd--34" value="" style="endArrow=none;html=1;rounded=0;exitX=0.75;exitY=1;exitDx=0;exitDy=0;" edge="1" parent="1" source="7EVLLb8pi6bqAcfZyfd--1" target="7EVLLb8pi6bqAcfZyfd--25">
          <mxGeometry width="50" height="50" relative="1" as="geometry">
            <mxPoint x="320" y="170" as="sourcePoint" />
            <mxPoint x="370" y="120" as="targetPoint" />
          </mxGeometry>
        </mxCell>
        <mxCell id="7EVLLb8pi6bqAcfZyfd--35" value="" style="endArrow=none;html=1;rounded=0;entryX=0.5;entryY=1;entryDx=0;entryDy=0;exitX=0.5;exitY=0;exitDx=0;exitDy=0;" edge="1" parent="1" source="7EVLLb8pi6bqAcfZyfd--1" target="7EVLLb8pi6bqAcfZyfd--23">
          <mxGeometry width="50" height="50" relative="1" as="geometry">
            <mxPoint x="330" y="180" as="sourcePoint" />
            <mxPoint x="380" y="130" as="targetPoint" />
          </mxGeometry>
        </mxCell>
        <mxCell id="7EVLLb8pi6bqAcfZyfd--36" value="" style="endArrow=none;html=1;rounded=0;entryX=1;entryY=1;entryDx=0;entryDy=0;" edge="1" parent="1" target="7EVLLb8pi6bqAcfZyfd--12">
          <mxGeometry width="50" height="50" relative="1" as="geometry">
            <mxPoint x="200" y="130" as="sourcePoint" />
            <mxPoint x="390" y="140" as="targetPoint" />
          </mxGeometry>
        </mxCell>
        <mxCell id="7EVLLb8pi6bqAcfZyfd--37" value="" style="endArrow=none;html=1;rounded=0;entryX=0.25;entryY=1;entryDx=0;entryDy=0;exitX=0.715;exitY=0.019;exitDx=0;exitDy=0;exitPerimeter=0;" edge="1" parent="1" source="7EVLLb8pi6bqAcfZyfd--26" target="7EVLLb8pi6bqAcfZyfd--1">
          <mxGeometry width="50" height="50" relative="1" as="geometry">
            <mxPoint x="350" y="200" as="sourcePoint" />
            <mxPoint x="400" y="150" as="targetPoint" />
          </mxGeometry>
        </mxCell>
        <mxCell id="7EVLLb8pi6bqAcfZyfd--38" value="" style="endArrow=none;html=1;rounded=0;exitX=0;exitY=1;exitDx=0;exitDy=0;entryX=1;entryY=0.5;entryDx=0;entryDy=0;" edge="1" parent="1" source="7EVLLb8pi6bqAcfZyfd--1" target="7EVLLb8pi6bqAcfZyfd--27">
          <mxGeometry width="50" height="50" relative="1" as="geometry">
            <mxPoint x="360" y="210" as="sourcePoint" />
            <mxPoint x="410" y="160" as="targetPoint" />
          </mxGeometry>
        </mxCell>
        <mxCell id="7EVLLb8pi6bqAcfZyfd--39" value="becomes a" style="shape=rhombus;perimeter=rhombusPerimeter;whiteSpace=wrap;html=1;align=center;" vertex="1" parent="1">
          <mxGeometry x="510" y="120" width="120" height="60" as="geometry" />
        </mxCell>
        <mxCell id="7EVLLb8pi6bqAcfZyfd--40" value="" style="endArrow=none;html=1;rounded=0;exitX=1;exitY=0.5;exitDx=0;exitDy=0;entryX=0;entryY=0.5;entryDx=0;entryDy=0;" edge="1" parent="1" source="7EVLLb8pi6bqAcfZyfd--1" target="7EVLLb8pi6bqAcfZyfd--39">
          <mxGeometry width="50" height="50" relative="1" as="geometry">
            <mxPoint x="730" y="430" as="sourcePoint" />
            <mxPoint x="780" y="380" as="targetPoint" />
          </mxGeometry>
        </mxCell>
        <mxCell id="7EVLLb8pi6bqAcfZyfd--41" value="" style="endArrow=none;html=1;rounded=0;exitX=1;exitY=0.5;exitDx=0;exitDy=0;entryX=0;entryY=0.5;entryDx=0;entryDy=0;" edge="1" parent="1" source="7EVLLb8pi6bqAcfZyfd--39" target="7EVLLb8pi6bqAcfZyfd--2">
          <mxGeometry width="50" height="50" relative="1" as="geometry">
            <mxPoint x="370" y="220" as="sourcePoint" />
            <mxPoint x="420" y="170" as="targetPoint" />
          </mxGeometry>
        </mxCell>
        <mxCell id="7EVLLb8pi6bqAcfZyfd--42" value="" style="endArrow=none;html=1;rounded=0;entryX=0.5;entryY=1;entryDx=0;entryDy=0;" edge="1" parent="1" source="7EVLLb8pi6bqAcfZyfd--2" target="7EVLLb8pi6bqAcfZyfd--21">
          <mxGeometry width="50" height="50" relative="1" as="geometry">
            <mxPoint x="380" y="230" as="sourcePoint" />
            <mxPoint x="430" y="180" as="targetPoint" />
          </mxGeometry>
        </mxCell>
        <mxCell id="7EVLLb8pi6bqAcfZyfd--43" value="data source" style="ellipse;whiteSpace=wrap;html=1;align=center;" vertex="1" parent="1">
          <mxGeometry x="820" y="30" width="100" height="40" as="geometry" />
        </mxCell>
        <mxCell id="7EVLLb8pi6bqAcfZyfd--44" value="admission date" style="ellipse;whiteSpace=wrap;html=1;align=center;" vertex="1" parent="1">
          <mxGeometry x="900" y="130" width="100" height="40" as="geometry" />
        </mxCell>
        <mxCell id="7EVLLb8pi6bqAcfZyfd--45" value="has recovered" style="ellipse;whiteSpace=wrap;html=1;align=center;" vertex="1" parent="1">
          <mxGeometry x="670" y="210" width="100" height="40" as="geometry" />
        </mxCell>
        <mxCell id="7EVLLb8pi6bqAcfZyfd--46" value="is deceased" style="ellipse;whiteSpace=wrap;html=1;align=center;" vertex="1" parent="1">
          <mxGeometry x="820" y="210" width="100" height="40" as="geometry" />
        </mxCell>
        <mxCell id="7EVLLb8pi6bqAcfZyfd--47" value="" style="endArrow=none;html=1;rounded=0;entryX=0.5;entryY=1;entryDx=0;entryDy=0;exitX=0.653;exitY=-0.012;exitDx=0;exitDy=0;exitPerimeter=0;" edge="1" parent="1" source="7EVLLb8pi6bqAcfZyfd--2" target="7EVLLb8pi6bqAcfZyfd--43">
          <mxGeometry width="50" height="50" relative="1" as="geometry">
            <mxPoint x="777.5" y="140" as="sourcePoint" />
            <mxPoint x="710" y="80" as="targetPoint" />
          </mxGeometry>
        </mxCell>
        <mxCell id="7EVLLb8pi6bqAcfZyfd--48" value="" style="endArrow=none;html=1;rounded=0;entryX=0;entryY=0.5;entryDx=0;entryDy=0;exitX=1;exitY=0.5;exitDx=0;exitDy=0;" edge="1" parent="1" source="7EVLLb8pi6bqAcfZyfd--2" target="7EVLLb8pi6bqAcfZyfd--44">
          <mxGeometry width="50" height="50" relative="1" as="geometry">
            <mxPoint x="787.5" y="150" as="sourcePoint" />
            <mxPoint x="720" y="90" as="targetPoint" />
          </mxGeometry>
        </mxCell>
        <mxCell id="7EVLLb8pi6bqAcfZyfd--49" value="" style="endArrow=none;html=1;rounded=0;entryX=0.75;entryY=1;entryDx=0;entryDy=0;exitX=0.353;exitY=-0.012;exitDx=0;exitDy=0;exitPerimeter=0;" edge="1" parent="1" source="7EVLLb8pi6bqAcfZyfd--46" target="7EVLLb8pi6bqAcfZyfd--2">
          <mxGeometry width="50" height="50" relative="1" as="geometry">
            <mxPoint x="797.5" y="160" as="sourcePoint" />
            <mxPoint x="730" y="100" as="targetPoint" />
          </mxGeometry>
        </mxCell>
        <mxCell id="7EVLLb8pi6bqAcfZyfd--50" value="" style="endArrow=none;html=1;rounded=0;entryX=0.703;entryY=0.019;entryDx=0;entryDy=0;exitX=0.25;exitY=1;exitDx=0;exitDy=0;entryPerimeter=0;" edge="1" parent="1" source="7EVLLb8pi6bqAcfZyfd--2" target="7EVLLb8pi6bqAcfZyfd--45">
          <mxGeometry width="50" height="50" relative="1" as="geometry">
            <mxPoint x="807.5" y="170" as="sourcePoint" />
            <mxPoint x="740" y="110" as="targetPoint" />
          </mxGeometry>
        </mxCell>
        <mxCell id="7EVLLb8pi6bqAcfZyfd--59" style="edgeStyle=orthogonalEdgeStyle;rounded=0;orthogonalLoop=1;jettySize=auto;html=1;" edge="1" parent="1" source="7EVLLb8pi6bqAcfZyfd--51" target="7EVLLb8pi6bqAcfZyfd--3">
          <mxGeometry relative="1" as="geometry" />
        </mxCell>
        <mxCell id="7EVLLb8pi6bqAcfZyfd--51" value="is treated by" style="shape=rhombus;perimeter=rhombusPerimeter;whiteSpace=wrap;html=1;align=center;" vertex="1" parent="1">
          <mxGeometry x="480" y="260" width="120" height="60" as="geometry" />
        </mxCell>
        <mxCell id="7EVLLb8pi6bqAcfZyfd--52" value="" style="endArrow=none;html=1;rounded=0;entryX=0.679;entryY=0.2;entryDx=0;entryDy=0;exitX=0;exitY=0.75;exitDx=0;exitDy=0;entryPerimeter=0;" edge="1" parent="1" source="7EVLLb8pi6bqAcfZyfd--2" target="7EVLLb8pi6bqAcfZyfd--51">
          <mxGeometry width="50" height="50" relative="1" as="geometry">
            <mxPoint x="850" y="160" as="sourcePoint" />
            <mxPoint x="910" y="160" as="targetPoint" />
          </mxGeometry>
        </mxCell>
        <mxCell id="7EVLLb8pi6bqAcfZyfd--54" value="" style="endArrow=none;html=1;rounded=0;entryX=0;entryY=0.5;entryDx=0;entryDy=0;exitX=1;exitY=0.5;exitDx=0;exitDy=0;entryPerimeter=0;" edge="1" parent="1" source="7EVLLb8pi6bqAcfZyfd--3" target="7EVLLb8pi6bqAcfZyfd--13">
          <mxGeometry width="50" height="50" relative="1" as="geometry">
            <mxPoint x="130" y="590" as="sourcePoint" />
            <mxPoint x="190" y="590" as="targetPoint" />
          </mxGeometry>
        </mxCell>
        <mxCell id="7EVLLb8pi6bqAcfZyfd--57" style="edgeStyle=orthogonalEdgeStyle;rounded=0;orthogonalLoop=1;jettySize=auto;html=1;entryX=0.9;entryY=1;entryDx=0;entryDy=0;entryPerimeter=0;" edge="1" parent="1" source="7EVLLb8pi6bqAcfZyfd--55" target="7EVLLb8pi6bqAcfZyfd--1">
          <mxGeometry relative="1" as="geometry" />
        </mxCell>
        <mxCell id="7EVLLb8pi6bqAcfZyfd--55" value="is a" style="shape=rhombus;perimeter=rhombusPerimeter;whiteSpace=wrap;html=1;align=center;" vertex="1" parent="1">
          <mxGeometry x="300" y="320" width="120" height="60" as="geometry" />
        </mxCell>
        <mxCell id="7EVLLb8pi6bqAcfZyfd--58" value="" style="endArrow=none;html=1;rounded=0;entryX=0;entryY=0;entryDx=0;entryDy=0;exitX=0.5;exitY=1;exitDx=0;exitDy=0;" edge="1" parent="1" source="7EVLLb8pi6bqAcfZyfd--55" target="7EVLLb8pi6bqAcfZyfd--3">
          <mxGeometry width="50" height="50" relative="1" as="geometry">
            <mxPoint x="550" y="330" as="sourcePoint" />
            <mxPoint x="520" y="450" as="targetPoint" />
          </mxGeometry>
        </mxCell>
        <mxCell id="7EVLLb8pi6bqAcfZyfd--60" value="qualification" style="ellipse;whiteSpace=wrap;html=1;align=center;" vertex="1" parent="1">
          <mxGeometry x="520" y="525" width="100" height="40" as="geometry" />
        </mxCell>
        <mxCell id="7EVLLb8pi6bqAcfZyfd--61" value="depatment" style="ellipse;whiteSpace=wrap;html=1;align=center;" vertex="1" parent="1">
          <mxGeometry x="380" y="530" width="100" height="40" as="geometry" />
        </mxCell>
        <mxCell id="7EVLLb8pi6bqAcfZyfd--62" value="" style="endArrow=none;html=1;rounded=0;entryX=0.365;entryY=0.05;entryDx=0;entryDy=0;exitX=0.75;exitY=1;exitDx=0;exitDy=0;entryPerimeter=0;" edge="1" parent="1" source="7EVLLb8pi6bqAcfZyfd--3" target="7EVLLb8pi6bqAcfZyfd--60">
          <mxGeometry width="50" height="50" relative="1" as="geometry">
            <mxPoint x="570" y="470" as="sourcePoint" />
            <mxPoint x="610" y="470" as="targetPoint" />
          </mxGeometry>
        </mxCell>
        <mxCell id="7EVLLb8pi6bqAcfZyfd--63" value="" style="endArrow=none;html=1;rounded=0;entryX=0.653;entryY=0.05;entryDx=0;entryDy=0;exitX=0.25;exitY=1;exitDx=0;exitDy=0;entryPerimeter=0;" edge="1" parent="1" source="7EVLLb8pi6bqAcfZyfd--3" target="7EVLLb8pi6bqAcfZyfd--61">
          <mxGeometry width="50" height="50" relative="1" as="geometry">
            <mxPoint x="580" y="480" as="sourcePoint" />
            <mxPoint x="620" y="480" as="targetPoint" />
          </mxGeometry>
        </mxCell>
      </root>
    </mxGraphModel>
  </diagram>
</mxfile>
